<svg xmlns="http://www.w3.org/2000/svg" viewBox="0 0 1000 750" width="1000" height="750" role="img" aria-label="Çikolatalı Mousse">
  <defs>
    <linearGradient id="bg" x1="0" y1="0" x2="0.6" y2="1">
      <stop offset="0%" stop-color="hsl(12 26% 13%)"/>
      <stop offset="55%" stop-color="hsl(12 18% 8%)"/>
      <stop offset="100%" stop-color="#08080a"/>
    </linearGradient>
    <radialGradient id="glow" cx="50%" cy="48%" r="52%">
      <stop offset="0%" stop-color="hsl(12 60% 52%)" stop-opacity=".30"/>
      <stop offset="60%" stop-color="hsl(12 50% 30%)" stop-opacity=".08"/>
      <stop offset="100%" stop-color="hsl(12 40% 20%)" stop-opacity="0"/>
    </radialGradient>
    <linearGradient id="g" x1="0" y1="0" x2="1" y2="1">
      <stop offset="0%" stop-color="#F2DDA8"/>
      <stop offset="50%" stop-color="#D9B871"/>
      <stop offset="100%" stop-color="#A8843A"/>
    </linearGradient>
  </defs>
  <rect width="1000" height="750" fill="url(#bg)"/>
  <rect width="1000" height="750" fill="url(#glow)"/>
  <ellipse cx="500" cy="640" rx="330" ry="52" fill="#000" opacity=".35"/>
  <g>
    <path d="M372 402h256v96a26 26 0 0 1-26 26H398a26 26 0 0 1-26-26z" fill="none" stroke="url(#g)" stroke-width="2.5" opacity=".85"/>
    <path d="M372 402q128-58 256 0" fill="none" stroke="url(#g)" stroke-width="2.5" opacity=".85"/>
    <path d="M386 448h228" stroke="url(#g)" stroke-width="1.2" opacity=".4"/>
    <path d="M500 340v-52" stroke="url(#g)" stroke-width="1.6" opacity=".5" stroke-linecap="round"/>
    <circle cx="500" cy="276" r="12" fill="none" stroke="url(#g)" stroke-width="2" opacity=".7"/></g>
  <g font-family="Georgia, 'Times New Roman', serif" text-anchor="middle">
    <text x="500" y="120" fill="#D9B871" font-size="22" letter-spacing="9" opacity=".72">SIYAH İNCİ</text>
    <text x="500" y="630" fill="#F6F3EC" font-size="46" opacity=".92">Çikolatalı Mousse</text>
  </g>
  <text x="500" y="676" text-anchor="middle" font-family="Helvetica, Arial, sans-serif" font-size="17" letter-spacing="5" fill="#A8A296" opacity=".7">TATLILAR</text>
  <rect x="1" y="1" width="998" height="748" fill="none" stroke="#D9B871" stroke-width="1" opacity=".14"/>
</svg>
